<?xml version="1.0" standalone="no"?>
<!DOCTYPE svg PUBLIC "-//W3C//DTD SVG 20010904//EN"
 "http://www.w3.org/TR/2001/REC-SVG-20010904/DTD/svg10.dtd">
<svg version="1.0" xmlns="http://www.w3.org/2000/svg"
 width="96.000000pt" height="96.000000pt" viewBox="0 0 96.000000 96.000000"
 preserveAspectRatio="xMidYMid meet">
<metadata>
Created by potrace 1.14, written by Peter Selinger 2001-2017
</metadata>
<g transform="translate(0.000000,96.000000) scale(0.100000,-0.100000)"
fill="#000000" stroke="none">
<path d="M245 869 c-7 -11 16 -44 48 -67 23 -18 22 -21 -17 -66 -19 -21 -42
-56 -51 -76 l-17 -38 -44 20 c-43 18 -64 18 -64 -3 0 -5 21 -19 46 -32 l46
-22 -6 -44 c-3 -24 -6 -56 -6 -72 0 -27 -2 -28 -57 -31 -44 -2 -58 -7 -58 -18
0 -11 15 -16 59 -20 l59 -5 13 -50 c7 -27 13 -53 14 -57 0 -4 -20 -21 -45 -38
-45 -31 -59 -60 -28 -60 9 0 31 11 49 25 18 14 36 25 41 25 4 0 19 -16 32 -35
106 -156 311 -164 426 -18 22 28 44 52 48 52 4 1 25 -10 45 -24 20 -14 42 -25
49 -25 27 0 11 30 -32 60 -25 17 -45 34 -45 38 1 4 7 30 14 57 l13 50 59 5
c44 4 59 9 59 20 0 11 -14 16 -57 18 -52 3 -58 5 -58 25 0 12 -3 45 -6 72 l-6
50 46 22 c25 13 46 27 46 33 0 21 -29 21 -68 1 l-40 -20 -13 31 c-7 17 -30 53
-52 80 l-39 50 36 36 c20 19 35 40 33 45 -7 23 -27 16 -62 -21 l-36 -40 -52
20 c-60 23 -134 21 -185 -5 l-33 -16 -42 40 c-45 42 -52 45 -62 28z"/>
</g>
</svg>
